<?xml version="1.0" standalone="no"?>
<!DOCTYPE svg PUBLIC "-//W3C//DTD SVG 20010904//EN"
 "http://www.w3.org/TR/2001/REC-SVG-20010904/DTD/svg10.dtd">
<svg version="1.0" xmlns="http://www.w3.org/2000/svg"
 width="1024.000000pt" height="1024.000000pt" viewBox="0 0 1024.000000 1024.000000"
 preserveAspectRatio="xMidYMid meet">
<metadata>
Created by potrace 1.14, written by Peter Selinger 2001-2017
</metadata>
<g transform="translate(0.000000,1024.000000) scale(0.100000,-0.100000)"
fill="#000000" stroke="none">
<path d="M0 5120 l0 -5120 5120 0 5120 0 0 5120 0 5120 -5120 0 -5120 0 0
-5120z m4610 2360 c143 -25 296 -71 358 -106 23 -14 42 -26 42 -27 0 -1 -84
-2 -188 -2 -170 -1 -196 -3 -288 -27 -253 -67 -444 -178 -635 -368 -127 -126
-166 -176 -252 -320 -131 -220 -229 -548 -251 -840 -18 -238 209 -832 519
-1354 161 -271 260 -410 442 -617 353 -404 858 -714 1319 -809 210 -44 481
-42 669 5 181 46 419 150 501 220 16 14 32 25 36 25 16 0 107 63 102 71 -3 5
1 6 9 3 8 -3 21 6 31 20 9 15 21 26 28 26 6 0 17 8 25 18 8 9 11 11 7 3 -5 -9
-3 -12 4 -7 7 4 12 15 13 24 0 12 2 13 6 3 3 -7 8 -9 12 -4 3 5 21 19 39 32
19 13 29 27 26 34 -4 7 -3 9 1 4 5 -4 17 0 27 10 10 9 18 13 18 9 0 -7 237
150 245 163 3 5 -41 31 -98 59 -130 64 -368 213 -522 326 -106 79 -304 237
-360 289 -11 11 -42 38 -69 60 -27 23 -75 65 -105 92 -278 250 -454 330 -641
291 -149 -31 -248 -101 -470 -330 -214 -221 -459 -464 -497 -493 l-32 -24 -86
52 -87 53 54 45 c81 68 261 255 342 356 224 277 349 526 407 811 19 94 23 157
30 464 5 270 11 372 23 425 20 85 27 93 61 71 108 -71 309 -332 510 -662 120
-196 358 -544 395 -574 3 -3 33 -39 66 -80 83 -102 326 -336 519 -500 87 -74
169 -145 182 -157 13 -13 27 -23 32 -23 11 0 140 -138 192 -205 57 -75 132
-198 164 -271 13 -30 28 -53 32 -51 5 3 38 23 75 46 166 100 332 169 489 201
149 31 347 25 469 -15 114 -37 227 -94 324 -163 139 -99 544 -516 532 -547 -3
-9 0 -12 8 -9 7 3 21 -7 31 -22 11 -17 12 -24 4 -19 -8 5 -5 -1 6 -12 11 -11
24 -18 29 -15 5 3 1 -7 -10 -21 -10 -15 -23 -27 -27 -27 -5 0 -6 -8 -3 -17 5
-16 -1 -18 -43 -18 -45 0 -49 -1 -39 -19 10 -18 9 -18 -13 -2 -13 9 -30 16
-38 16 -8 0 -23 8 -34 18 -11 9 -17 11 -12 3 7 -13 -32 8 -65 35 -22 18 -233
134 -325 178 -94 46 -186 83 -235 96 -19 5 -78 20 -130 35 -122 33 -271 49
-385 40 -293 -22 -541 -138 -960 -449 -288 -215 -314 -233 -570 -403 -209
-139 -438 -280 -590 -363 -44 -24 -96 -53 -115 -65 -53 -33 -435 -224 -478
-239 -20 -8 -71 -29 -112 -48 -41 -19 -95 -43 -120 -53 -25 -10 -60 -24 -78
-32 -29 -13 -81 -31 -242 -86 -195 -67 -426 -122 -655 -158 -38 -6 -173 -12
-300 -15 -257 -5 -389 8 -647 65 -177 39 -179 40 -443 237 -540 404 -997 999
-1247 1624 -66 163 -97 245 -113 300 -40 132 -63 220 -58 220 3 0 1 6 -5 13
-14 18 -90 347 -96 418 -2 25 -8 54 -14 65 -20 38 -35 300 -29 517 8 286 43
503 119 737 63 194 208 438 375 632 80 93 291 305 339 340 17 13 55 44 85 69
30 25 104 81 164 124 447 315 984 523 1520 589 186 23 591 16 755 -14z m475
-2067 c-75 -141 -118 -204 -123 -180 -4 20 44 107 58 107 6 0 10 5 10 11 0 14
103 179 109 174 2 -2 -23 -53 -54 -112z m2450 -1413 c3 -6 -1 -7 -9 -4 -18 7
-21 14 -7 14 6 0 13 -4 16 -10z m136 -165 c-1 -15 -24 -12 -29 3 -3 9 2 13 12
10 10 -1 17 -7 17 -13z m-591 -409 c0 -2 -7 -7 -16 -10 -8 -3 -12 -2 -9 4 6
10 25 14 25 6z"/>
</g>
</svg>
